Coordinates
version=1
nRows=60
nColumns=12
inDegrees=yes

Units are S.I. units (second, meters, Newtons, ...)
Angles are in degrees

endheader
time	SC_y	SC_z	SC_x	AC_y	AC_z	AC_x	GH_y	GH_z	GH_yy	EL_x	PS_y
       0.0              -27.78          16.17          51.52          42.87         -18.31          11.92         -103.6          73.35          71.58          34.54          120.7
  0.009752              -27.78          16.17          51.51          42.88         -18.31          11.91         -103.6          73.34          71.57          34.54          120.7
    0.0195              -27.79          16.18          51.51          42.88         -18.31          11.91         -103.5          73.33          71.56          34.54          120.7
   0.02926              -27.79          16.18           51.5          42.88         -18.31           11.9         -103.5          73.32          71.56          34.54          120.7
   0.03901               -27.8          16.18           51.5          42.88         -18.31           11.9         -103.5           73.3          71.54          34.54          120.7
   0.04876               -27.8          16.18          51.49          42.89          -18.3          11.89         -103.4          73.29          71.53          34.54          120.7
   0.05851              -27.81          16.18          51.48          42.89          -18.3          11.89         -103.4          73.27          71.52          34.55          120.7
   0.06827              -27.81          16.18          51.48          42.89          -18.3          11.88         -103.3          73.26          71.51          34.55          120.7
   0.07802              -27.82          16.19          51.47           42.9          -18.3          11.88         -103.3          73.24           71.5          34.55          120.7
   0.08777              -27.82          16.19          51.46           42.9          -18.3          11.87         -103.2          73.22          71.48          34.55          120.8
   0.09752              -27.83          16.19          51.45          42.91         -18.29          11.86         -103.2           73.2          71.47          34.55          120.8
    0.1073              -27.84          16.19          51.45          42.91         -18.29          11.85         -103.1          73.18          71.45          34.55          120.8
     0.117              -27.85           16.2          51.44          42.92         -18.29          11.85         -103.0          73.15          71.43          34.55          120.8
    0.1268              -27.86           16.2          51.42          42.92         -18.29          11.84         -103.0          73.13          71.41          34.55          120.8
    0.1365              -27.87           16.2          51.41          42.93         -18.28          11.83         -102.9           73.1          71.39          34.55          120.8
    0.1463              -27.88          16.21           51.4          42.93         -18.28          11.81         -102.8          73.07          71.37          34.55          120.8
     0.156              -27.89          16.21          51.39          42.94         -18.28           11.8         -102.7          73.03          71.34          34.55          120.8
    0.1658               -27.9          16.22          51.37          42.95         -18.27          11.79         -102.6           73.0          71.32          34.55          120.8
    0.1755              -27.91          16.22          51.36          42.95         -18.27          11.78         -102.5          72.96          71.29          34.55          120.8
    0.1853              -27.93          16.23          51.34          42.96         -18.26          11.76         -102.4          72.92          71.26          34.56          120.9
     0.195              -27.94          16.23          51.32          42.97         -18.26          11.74         -102.3          72.87          71.22          34.56          120.9
    0.2048              -27.96          16.24           51.3          42.98         -18.25          11.73         -102.1          72.82          71.18          34.56          120.9
    0.2145              -27.98          16.25          51.27          42.99         -18.25           11.7         -102.0          72.76          71.14          34.56          120.9
    0.2243               -28.0          16.25          51.25          43.01         -18.24          11.68         -101.8           72.7          71.09          34.56          120.9
    0.2341              -28.03          16.26          51.22          43.02         -18.23          11.66         -101.6          72.62          71.04          34.56          120.9
    0.2438              -28.05          16.27          51.19          43.04         -18.22          11.63         -101.4          72.55          70.98          34.57          121.0
    0.2536              -28.08          16.28          51.15          43.06         -18.21           11.6         -101.1          72.46          70.91          34.57          121.0
    0.2633              -28.12           16.3          51.11          43.08          -18.2          11.56         -100.9          72.36          70.84          34.57          121.0
    0.2731              -28.16          16.31          51.06           43.1         -18.19          11.52         -100.6          72.24          70.76          34.57          121.1
    0.2828               -28.2          16.33          51.01          43.12         -18.18          11.48         -100.2          72.12          70.66          34.58          121.1
    0.2926              -28.25          16.34          50.95          43.15         -18.16          11.42          -99.8          71.97          70.55          34.58          121.2
    0.3023              -28.31          16.36          50.88          43.19         -18.14          11.36         -99.34           71.8          70.43          34.59          121.2
    0.3121              -28.37          16.39          50.81          43.23         -18.12           11.3         -98.81          71.61          70.28          34.59          121.3
    0.3218              -28.45          16.42          50.71          43.27          -18.1          11.22         -98.19          71.39          70.11           34.6          121.4
    0.3316              -28.54          16.45          50.61          43.32         -18.07          11.12         -97.47          71.12          69.92           34.6          121.4
    0.3413              -28.65          16.49          50.48          43.39         -18.04          11.01         -96.62          70.81          69.69          34.61          121.5
    0.3511              -28.77          16.53          50.33          43.46          -18.0          10.88          -95.6          70.45          69.41          34.62          121.7
    0.3608              -28.92          16.59          50.15          43.55         -17.95          10.72         -94.39          70.01          69.08          34.64          121.8
    0.3706               -29.1          16.65          49.93          43.66         -17.89          10.53         -92.92          69.47          68.69          34.65          122.0
    0.3803              -29.33          16.73          49.67          43.79         -17.82           10.3         -91.13          68.82           68.2          34.67          122.2
    0.3901               -29.6          16.83          49.34          43.95         -17.73          10.01         -88.91          68.02           67.6          34.69          122.5
    0.3998              -29.95          16.96          48.93          44.15         -17.63          9.654         -86.15          67.02          66.85          34.72          122.8
    0.4096              -30.38          17.12          48.41          44.41         -17.49          9.203         -82.68          65.75          65.91          34.75          123.2
    0.4193              -30.93          17.31          47.76          44.73         -17.32          8.629         -78.25          64.15          64.71           34.8          123.7
    0.4291              -31.63          17.57          46.92          45.15         -17.09          7.896          -72.6          62.09          63.18          34.85          124.4
    0.4388              -32.53           17.9          45.84          45.68         -16.81          6.954         -65.33          59.45          61.21          34.93          125.3
    0.4486              -33.68          18.31          44.46          46.36         -16.45          5.751         -56.06          56.09          58.69          35.02          126.4
    0.4584              -35.13          18.84          42.73          47.22         -15.99          4.238          -44.4          51.85          55.53          35.14          127.8
    0.4681               -36.9          19.48          40.63          48.26         -15.43          2.395         -30.18          46.69          51.68          35.28          129.5
    0.4779              -38.94          20.22          38.18          49.47         -14.79         0.2584         -13.71           40.7          47.21          35.45          131.5
    0.4876              -41.16          21.03          35.53          50.77         -14.09         -2.055          4.132          34.23          42.38          35.63          133.6
    0.4974              -43.37          21.83          32.89          52.08         -13.39         -4.369          21.97          27.75          37.54          35.81          135.8
    0.5071              -45.42          22.57          30.44          53.29         -12.74         -6.505          38.45          21.76          33.08          35.97          137.7
    0.5169              -47.18          23.21          28.34          54.33         -12.18         -8.348          52.66           16.6          29.22          36.11          139.4
    0.5266              -48.63          23.74          26.61          55.19         -11.73         -9.861          64.32          12.37          26.06          36.23          140.8
    0.5364              -49.78          24.16          25.23          55.87         -11.36         -11.06           73.6          8.998          23.55          36.32          141.9
    0.5461              -50.68          24.48          24.15           56.4         -11.08         -12.01          80.86          6.361          21.58           36.4          142.8
    0.5559              -51.39          24.74          23.31          56.81         -10.86         -12.74          86.52          4.306          20.04          36.45          143.5
    0.5656              -51.94          24.94          22.66          57.14         -10.68         -13.31          90.94            2.7          18.85           36.5          144.0
    0.5754              -52.37           25.1          22.14          57.39         -10.55         -13.76          94.42          1.437           17.9          36.53          144.4
